<mxfile host="app.diagrams.net" modified="2023-12-04T02:34:39.306Z" agent="Mozilla/5.0 (Windows NT 10.0; Win64; x64) AppleWebKit/537.36 (KHTML, like Gecko) Chrome/119.0.0.0 Safari/537.36" etag="tvFlvGwst7SUG7QGvHn6" version="22.1.5" type="github">
  <diagram name="第 1 页" id="EOdV1BollmgqZILPcuxN">
    <mxGraphModel dx="1562" dy="810" grid="1" gridSize="10" guides="1" tooltips="1" connect="1" arrows="1" fold="1" page="1" pageScale="1" pageWidth="827" pageHeight="1169" math="0" shadow="0">
      <root>
        <mxCell id="0" />
        <mxCell id="1" parent="0" />
        <mxCell id="j3yelVO45m4fkzcGHNcj-25" style="edgeStyle=orthogonalEdgeStyle;rounded=0;orthogonalLoop=1;jettySize=auto;html=1;exitX=1;exitY=0.5;exitDx=0;exitDy=0;" edge="1" parent="1" source="j3yelVO45m4fkzcGHNcj-4" target="j3yelVO45m4fkzcGHNcj-5">
          <mxGeometry relative="1" as="geometry" />
        </mxCell>
        <mxCell id="j3yelVO45m4fkzcGHNcj-26" value="SubsRela" style="edgeLabel;html=1;align=center;verticalAlign=middle;resizable=0;points=[];" vertex="1" connectable="0" parent="j3yelVO45m4fkzcGHNcj-25">
          <mxGeometry x="-0.0141" y="1" relative="1" as="geometry">
            <mxPoint as="offset" />
          </mxGeometry>
        </mxCell>
        <mxCell id="j3yelVO45m4fkzcGHNcj-4" value="后付费" style="text;html=1;strokeColor=none;fillColor=none;align=center;verticalAlign=middle;whiteSpace=wrap;rounded=0;" vertex="1" parent="1">
          <mxGeometry x="90" y="720" width="80" height="40" as="geometry" />
        </mxCell>
        <mxCell id="j3yelVO45m4fkzcGHNcj-21" style="edgeStyle=orthogonalEdgeStyle;rounded=0;orthogonalLoop=1;jettySize=auto;html=1;" edge="1" parent="1" source="j3yelVO45m4fkzcGHNcj-5" target="j3yelVO45m4fkzcGHNcj-7">
          <mxGeometry relative="1" as="geometry" />
        </mxCell>
        <mxCell id="j3yelVO45m4fkzcGHNcj-43" style="edgeStyle=orthogonalEdgeStyle;rounded=0;orthogonalLoop=1;jettySize=auto;html=1;" edge="1" parent="1" target="j3yelVO45m4fkzcGHNcj-42">
          <mxGeometry relative="1" as="geometry">
            <mxPoint x="335" y="734" as="sourcePoint" />
            <Array as="points">
              <mxPoint x="335" y="734" />
            </Array>
          </mxGeometry>
        </mxCell>
        <mxCell id="j3yelVO45m4fkzcGHNcj-5" value="预付费" style="text;html=1;strokeColor=none;fillColor=none;align=center;verticalAlign=middle;whiteSpace=wrap;rounded=0;" vertex="1" parent="1">
          <mxGeometry x="380" y="720" width="80" height="40" as="geometry" />
        </mxCell>
        <mxCell id="j3yelVO45m4fkzcGHNcj-6" value="IPP：有代付属性且值是后付费SubsId" style="text;html=1;strokeColor=none;fillColor=none;align=center;verticalAlign=middle;whiteSpace=wrap;rounded=0;" vertex="1" parent="1">
          <mxGeometry x="520" y="680" width="140" height="40" as="geometry" />
        </mxCell>
        <mxCell id="j3yelVO45m4fkzcGHNcj-7" value="IPP：无代付属属性" style="text;html=1;strokeColor=none;fillColor=none;align=center;verticalAlign=middle;whiteSpace=wrap;rounded=0;" vertex="1" parent="1">
          <mxGeometry x="520" y="720" width="140" height="40" as="geometry" />
        </mxCell>
        <mxCell id="j3yelVO45m4fkzcGHNcj-8" value="IPP：有代付属性但值不是后付费SubsId" style="text;html=1;strokeColor=none;fillColor=none;align=center;verticalAlign=middle;whiteSpace=wrap;rounded=0;" vertex="1" parent="1">
          <mxGeometry x="520" y="760" width="140" height="40" as="geometry" />
        </mxCell>
        <mxCell id="j3yelVO45m4fkzcGHNcj-15" value="" style="verticalLabelPosition=bottom;verticalAlign=top;html=1;shape=mxgraph.basic.tick" vertex="1" parent="1">
          <mxGeometry x="670" y="695" width="10" height="10" as="geometry" />
        </mxCell>
        <mxCell id="j3yelVO45m4fkzcGHNcj-16" value="" style="verticalLabelPosition=bottom;verticalAlign=top;html=1;shape=mxgraph.basic.x" vertex="1" parent="1">
          <mxGeometry x="670" y="735" width="10" height="10" as="geometry" />
        </mxCell>
        <mxCell id="j3yelVO45m4fkzcGHNcj-24" value="" style="verticalLabelPosition=bottom;verticalAlign=top;html=1;shape=mxgraph.basic.x" vertex="1" parent="1">
          <mxGeometry x="670" y="775" width="10" height="10" as="geometry" />
        </mxCell>
        <mxCell id="j3yelVO45m4fkzcGHNcj-34" style="edgeStyle=orthogonalEdgeStyle;rounded=0;orthogonalLoop=1;jettySize=auto;html=1;entryX=0.5;entryY=0;entryDx=0;entryDy=0;" edge="1" parent="1" source="j3yelVO45m4fkzcGHNcj-27" target="j3yelVO45m4fkzcGHNcj-40">
          <mxGeometry relative="1" as="geometry">
            <mxPoint x="225" y="775" as="targetPoint" />
          </mxGeometry>
        </mxCell>
        <mxCell id="j3yelVO45m4fkzcGHNcj-27" value="" style="verticalLabelPosition=bottom;verticalAlign=top;html=1;shape=mxgraph.basic.x;fillColor=#f8cecc;strokeColor=#b85450;" vertex="1" parent="1">
          <mxGeometry x="190" y="735" width="10" height="10" as="geometry" />
        </mxCell>
        <mxCell id="j3yelVO45m4fkzcGHNcj-33" value="" style="verticalLabelPosition=bottom;verticalAlign=top;html=1;shape=mxgraph.basic.x;fillColor=#f8cecc;strokeColor=#b85450;" vertex="1" parent="1">
          <mxGeometry x="330" y="735" width="10" height="10" as="geometry" />
        </mxCell>
        <mxCell id="j3yelVO45m4fkzcGHNcj-40" value="后付费拆机或切换到预付费套餐" style="text;html=1;strokeColor=none;fillColor=none;align=center;verticalAlign=middle;whiteSpace=wrap;rounded=0;" vertex="1" parent="1">
          <mxGeometry x="147.5" y="800" width="95" height="40" as="geometry" />
        </mxCell>
        <mxCell id="j3yelVO45m4fkzcGHNcj-49" value="" style="edgeStyle=orthogonalEdgeStyle;rounded=0;orthogonalLoop=1;jettySize=auto;html=1;" edge="1" parent="1" source="j3yelVO45m4fkzcGHNcj-42" target="j3yelVO45m4fkzcGHNcj-48">
          <mxGeometry relative="1" as="geometry" />
        </mxCell>
        <mxCell id="j3yelVO45m4fkzcGHNcj-42" value="预付费切换到后付费套餐" style="text;html=1;strokeColor=none;fillColor=none;align=center;verticalAlign=middle;whiteSpace=wrap;rounded=0;" vertex="1" parent="1">
          <mxGeometry x="287.5" y="655" width="95" height="40" as="geometry" />
        </mxCell>
        <mxCell id="j3yelVO45m4fkzcGHNcj-48" value="预付费拆机，代付IPP自动失效不需要处理" style="text;html=1;strokeColor=none;fillColor=none;align=center;verticalAlign=middle;whiteSpace=wrap;rounded=0;" vertex="1" parent="1">
          <mxGeometry x="287.5" y="585" width="95" height="40" as="geometry" />
        </mxCell>
        <mxCell id="j3yelVO45m4fkzcGHNcj-54" value="" style="endArrow=classic;html=1;rounded=0;fillColor=#f8cecc;strokeColor=#F20202;" edge="1" parent="1">
          <mxGeometry width="50" height="50" relative="1" as="geometry">
            <mxPoint x="242.5" y="825" as="sourcePoint" />
            <mxPoint x="510" y="700" as="targetPoint" />
          </mxGeometry>
        </mxCell>
        <mxCell id="j3yelVO45m4fkzcGHNcj-55" value="" style="endArrow=classic;html=1;rounded=0;fillColor=#f8cecc;strokeColor=#F20202;" edge="1" parent="1">
          <mxGeometry width="50" height="50" relative="1" as="geometry">
            <mxPoint x="382.5" y="675" as="sourcePoint" />
            <mxPoint x="512.5" y="695" as="targetPoint" />
          </mxGeometry>
        </mxCell>
        <mxCell id="j3yelVO45m4fkzcGHNcj-58" value="" style="endArrow=classic;html=1;rounded=0;fillColor=#f8cecc;strokeColor=#F20202;" edge="1" parent="1">
          <mxGeometry width="50" height="50" relative="1" as="geometry">
            <mxPoint x="580" y="680" as="sourcePoint" />
            <mxPoint x="590" y="650" as="targetPoint" />
          </mxGeometry>
        </mxCell>
        <mxCell id="j3yelVO45m4fkzcGHNcj-59" value="失效即去订购" style="text;html=1;align=center;verticalAlign=middle;resizable=0;points=[];autosize=1;strokeColor=none;fillColor=none;fontColor=#F20202;" vertex="1" parent="1">
          <mxGeometry x="540" y="625" width="100" height="30" as="geometry" />
        </mxCell>
      </root>
    </mxGraphModel>
  </diagram>
</mxfile>
